# xmcd
#
# Track frame offsets:
#	300
#	14406
#	30356
#	42842
#	55993
#	70916
#	83849
#	96358
#	108656
#	121597
#	133295
#	148706
#	161196
#	170828
#	181825
#	196679
#	209144
#	223067
#
# Disc length: 3115 seconds
#
# Revision: 1
# Processed by: cddbd v1.5.1PL2 Copyright (c) Steve Scherf et al.
# Submitted via: audiograbber 1.83.01
#
DISCID=100c2712
DTITLE=Sonny Terry - The Blues
DYEAR=2004
DGENRE=Blues
TTITLE0=Mountain Blues
TTITLE1=The New John Henry (trad)
TTITLE2=Run Away Women
TTITLE3=Chain Gang Special
TTITLE4=Pick A Bale Of Cotton (trad)
TTITLE5=Tell Me Little Woman
TTITLE6=Whoopin' The Blues
TTITLE7=Riff And Harmonica Jump
TTITLE8=Early Morning Blues
TTITLE9=Jane Crow Blues (trad)
TTITLE10=Telephone Blues
TTITLE11=Dirty Mistreater
TTITLE12=Hootin' Blues
TTITLE13=Dangerous Woman
TTITLE14=Going Down Slow
TTITLE15=Sittin' On Top Of The World
TTITLE16=Man Ain't Nothing But A Fool
TTITLE17=Stranger Blues
EXTD=
EXTT0=
EXTT1=
EXTT2=
EXTT3=
EXTT4=
EXTT5=
EXTT6=
EXTT7=
EXTT8=
EXTT9=
EXTT10=
EXTT11=(Carr/Blackwell)
EXTT12=
EXTT13=
EXTT14=(Oden)
EXTT15=(Vincson/Chatmon)
EXTT16=
EXTT17=(Fuller)
PLAYORDER=
